<svg width="22" height="22" viewBox="0 0 22 22" fill="none" xmlns="http://www.w3.org/2000/svg">
<path d="M12.6806 5.65277H9.16669V11.0367H12.705C13.4544 11.07 14.1867 10.8063 14.7428 10.3028C15.2989 9.79934 15.6339 9.09679 15.675 8.34777C15.6563 7.97389 15.5638 7.6074 15.403 7.26935C15.2422 6.93131 15.0162 6.62837 14.7379 6.37794C14.4596 6.12751 14.1347 5.93453 13.7816 5.81008C13.4285 5.68564 13.0544 5.63218 12.6806 5.65277Z" fill="white"/>
<path d="M11 1.22223C9.06615 1.22223 7.17572 1.79569 5.56777 2.87008C3.95982 3.94448 2.70658 5.47156 1.96652 7.25821C1.22647 9.04487 1.03283 11.0109 1.41011 12.9076C1.78739 14.8043 2.71863 16.5465 4.08608 17.9139C5.45353 19.2814 7.19576 20.2126 9.09246 20.5899C10.9892 20.9672 12.9552 20.7736 14.7418 20.0335C16.5285 19.2934 18.0555 18.0402 19.1299 16.4323C20.2043 14.8243 20.7778 12.9339 20.7778 11C20.7778 8.40678 19.7476 5.91976 17.9139 4.08607C16.0803 2.25239 13.5932 1.22223 11 1.22223V1.22223ZM12.6806 12.5645H9.16668V13.4445H14.2328C14.3949 13.4445 14.5503 13.5088 14.6649 13.6234C14.7795 13.738 14.8439 13.8935 14.8439 14.0556C14.8439 14.2176 14.7795 14.3731 14.6649 14.4877C14.5503 14.6023 14.3949 14.6667 14.2328 14.6667H9.16668V17.7222C9.16668 17.9248 9.0862 18.1191 8.94294 18.2624C8.79968 18.4056 8.60539 18.4861 8.40279 18.4861C8.20019 18.4861 8.0059 18.4056 7.86264 18.2624C7.71938 18.1191 7.6389 17.9248 7.6389 17.7222V14.6667H6.87501C6.71294 14.6667 6.5575 14.6023 6.44289 14.4877C6.32829 14.3731 6.2639 14.2176 6.2639 14.0556C6.2639 13.8935 6.32829 13.738 6.44289 13.6234C6.5575 13.5088 6.71294 13.4445 6.87501 13.4445H7.61446V12.5645H6.87501C6.67242 12.5645 6.47812 12.484 6.33486 12.3407C6.1916 12.1975 6.11112 12.0032 6.11112 11.8006C6.11112 11.598 6.1916 11.4037 6.33486 11.2604C6.47812 11.1172 6.67242 11.0367 6.87501 11.0367H7.61446V4.8889C7.61446 4.6863 7.69494 4.492 7.83819 4.34874C7.98145 4.20549 8.17575 4.12501 8.37835 4.12501H12.6561C13.8115 4.08876 14.934 4.51242 15.7772 5.30298C16.6205 6.09355 17.1156 7.18641 17.1539 8.34167C17.1156 9.49311 16.624 10.5828 15.7863 11.3737C14.9485 12.1645 13.8323 12.5925 12.6806 12.5645V12.5645Z" fill="white"/>
</svg>
