<svg width="22" height="22" viewBox="0 0 22 22" fill="none" xmlns="http://www.w3.org/2000/svg">
<path d="M19.51 7.58613L14.0551 6.79336L11.6166 1.84981C11.55 1.71445 11.4404 1.60488 11.3051 1.53828C10.9656 1.3707 10.5531 1.51035 10.3834 1.84981L7.94492 6.79336L2.49003 7.58613C2.33964 7.60762 2.20214 7.67852 2.09687 7.78594C1.9696 7.91675 1.89947 8.09274 1.90189 8.27523C1.9043 8.45772 1.97907 8.63179 2.10976 8.75918L6.05644 12.607L5.12402 18.0404C5.10215 18.1668 5.11614 18.2968 5.16439 18.4157C5.21264 18.5345 5.29323 18.6375 5.39702 18.7128C5.5008 18.7882 5.62363 18.833 5.75158 18.8421C5.87952 18.8513 6.00746 18.8243 6.12089 18.7645L11 16.1992L15.8791 18.7645C16.0123 18.8354 16.167 18.859 16.3152 18.8332C16.6891 18.7688 16.9404 18.4143 16.876 18.0404L15.9436 12.607L19.8902 8.75918C19.9977 8.65391 20.0686 8.51641 20.09 8.36602C20.148 7.99004 19.8859 7.64199 19.51 7.58613V7.58613Z" fill="white"/>
</svg>
